<svg width="154" height="37" viewBox="0 0 154 37" fill="none" xmlns="http://www.w3.org/2000/svg">
<g clip-path="url(#clip0_1694_640)">
<path d="M59.8536 25.9023H47.3067C47.5259 27.0813 48.1012 28.015 49.0277 28.7035C49.9542 29.392 51.1094 29.7362 52.4862 29.7362C54.2426 29.7362 55.6902 29.1562 56.8288 27.9985L58.8351 30.3045C58.1161 31.1628 57.2084 31.8112 56.1098 32.2521C55.0112 32.6907 53.7735 32.91 52.3967 32.91C50.6403 32.91 49.0914 32.561 47.7546 31.8607C46.4179 31.1628 45.3829 30.189 44.6545 28.9416C43.926 27.6943 43.5605 26.2819 43.5605 24.7045C43.5605 23.1271 43.9142 21.7454 44.6238 20.4957C45.3311 19.2483 46.3165 18.2745 47.5731 17.5766C48.8297 16.8787 50.2489 16.5273 51.8261 16.5273C53.4033 16.5273 54.7754 16.8716 56.0037 17.5601C57.232 18.2486 58.1892 19.2177 58.8776 20.465C59.566 21.7123 59.9102 23.1554 59.9102 24.7917C59.9102 25.0511 59.8889 25.4213 59.8512 25.9L59.8536 25.9023ZM48.7896 20.5853C47.9597 21.295 47.4576 22.2382 47.2784 23.4147H56.3526C56.1923 22.257 55.7043 21.3186 54.8862 20.5994C54.0682 19.8803 53.0497 19.5219 51.8308 19.5219C50.612 19.5219 49.6195 19.8755 48.792 20.5853H48.7896Z" fill="#06E89F"/>
<path d="M78.5363 21.9781H82.2188V30.3344C81.1414 31.1927 79.8825 31.8529 78.4467 32.3103C77.0086 32.7701 75.5328 32.9988 74.0145 32.9988C71.8786 32.9988 69.9525 32.5343 68.2362 31.6053C66.5199 30.6763 65.1713 29.3936 64.193 27.7573C63.2146 26.1209 62.7266 24.2723 62.7266 22.2162C62.7266 20.1601 63.2146 18.3139 64.193 16.6752C65.1713 15.0388 66.5246 13.7561 68.2503 12.8271C69.976 11.8981 71.9187 11.4336 74.0758 11.4336C75.8322 11.4336 77.4306 11.7236 78.8664 12.3013C80.3045 12.8813 81.5115 13.7302 82.4899 14.8478L80.0333 17.2434C78.4349 15.6471 76.5088 14.8478 74.255 14.8478C72.7768 14.8478 71.466 15.1567 70.3179 15.7768C69.1697 16.397 68.2715 17.2647 67.6232 18.3823C66.9749 19.4999 66.6495 20.7779 66.6495 22.2162C66.6495 23.6545 66.9749 24.8712 67.6232 25.9888C68.2715 27.1065 69.1697 27.986 70.3179 28.625C71.466 29.264 72.7674 29.5823 74.2267 29.5823C75.8628 29.5823 77.3009 29.2239 78.5387 28.5047V21.9757L78.5363 21.9781Z" fill="#06E89F"/>
<path d="M96.5952 16.5273V20.0925C96.2746 20.0335 95.9869 20.0029 95.7276 20.0029C94.2706 20.0029 93.1319 20.4273 92.3139 21.2761C91.4958 22.125 91.0856 23.3487 91.0856 24.945V32.7025H87.3418V16.7089H90.9064V19.0456C91.9838 17.3691 93.8816 16.5297 96.5952 16.5297V16.5273Z" fill="#06E89F"/>
<path d="M115.252 25.9023H102.705C102.924 27.0813 103.5 28.015 104.426 28.7035C105.353 29.392 106.508 29.7362 107.885 29.7362C109.641 29.7362 111.089 29.1562 112.227 27.9985L114.234 30.3045C113.515 31.1628 112.607 31.8112 111.508 32.2521C110.41 32.6907 109.172 32.91 107.795 32.91C106.039 32.91 104.49 32.561 103.153 31.8607C101.816 31.1628 100.781 30.189 100.053 28.9416C99.3244 27.6943 98.959 26.2819 98.959 24.7045C98.959 23.1271 99.3126 21.7454 100.022 20.4957C100.73 19.2483 101.715 18.2745 102.972 17.5766C104.228 16.8787 105.647 16.5273 107.225 16.5273C108.802 16.5273 110.174 16.8716 111.402 17.5601C112.63 18.2486 113.588 19.2177 114.276 20.465C114.964 21.7123 115.309 23.1554 115.309 24.7917C115.309 25.0511 115.287 25.4213 115.25 25.9L115.252 25.9023ZM104.188 20.5853C103.358 21.295 102.856 22.2382 102.677 23.4147H111.751C111.591 22.257 111.103 21.3186 110.285 20.5994C109.467 19.8803 108.448 19.5219 107.229 19.5219C106.01 19.5219 105.018 19.8755 104.19 20.5853H104.188Z" fill="#06E89F"/>
<path d="M134.236 25.9023H121.69C121.909 27.0813 122.484 28.015 123.411 28.7035C124.337 29.392 125.492 29.7362 126.869 29.7362C128.625 29.7362 130.073 29.1562 131.212 27.9985L133.218 30.3045C132.499 31.1628 131.591 31.8112 130.493 32.2521C129.394 32.6907 128.156 32.91 126.779 32.91C125.023 32.91 123.474 32.561 122.137 31.8607C120.801 31.1628 119.766 30.189 119.037 28.9416C118.309 27.6943 117.943 26.2819 117.943 24.7045C117.943 23.1271 118.297 21.7454 119.007 20.4957C119.714 19.2483 120.699 18.2745 121.956 17.5766C123.212 16.8787 124.632 16.5273 126.209 16.5273C127.786 16.5273 129.158 16.8716 130.387 17.5601C131.615 18.2486 132.572 19.2177 133.26 20.465C133.949 21.7123 134.293 23.1554 134.293 24.7917C134.293 25.0511 134.272 25.4213 134.234 25.9L134.236 25.9023ZM123.172 20.5853C122.343 21.295 121.84 22.2382 121.661 23.4147H130.735C130.575 22.257 130.087 21.3186 129.269 20.5994C128.451 19.8803 127.433 19.5219 126.214 19.5219C124.995 19.5219 124.002 19.8755 123.175 20.5853H123.172Z" fill="#06E89F"/>
<path d="M152.172 18.2954C153.389 19.4743 153.999 21.2215 153.999 23.5369V32.7021H150.255V24.0156C150.255 22.6174 149.925 21.5657 149.268 20.856C148.61 20.1487 147.669 19.7926 146.453 19.7926C145.076 19.7926 143.987 20.2076 143.188 21.0352C142.388 21.8628 141.99 23.0559 141.99 24.6145V32.7021H138.246V16.7085H141.811V18.774C142.428 18.036 143.209 17.4772 144.147 17.0975C145.085 16.7179 146.144 16.5293 147.32 16.5293C149.336 16.5293 150.953 17.1188 152.172 18.2954Z" fill="#06E89F"/>
<path d="M17.2024 12.3767C17.7611 11.9169 18.2703 11.4665 18.8126 11.0586C21.7571 8.83747 25.0813 7.62316 28.7496 7.31192C31.1921 7.10442 33.5921 7.37322 35.9638 7.95091C36.0722 7.97684 36.2207 8.12067 36.2349 8.22206C36.6026 11.2755 36.7252 14.329 35.9331 17.3377C34.7048 21.9969 31.6754 24.8806 27.064 26.1302C24.2632 26.8895 21.4059 27.0687 18.5202 26.84C17.1764 26.7339 15.835 26.5947 14.4417 26.4651C14.2837 29.7284 15.2621 32.7653 16.4055 35.8094C15.2809 36.2102 14.1941 36.5969 13.0578 37.0025C12.7631 36.156 12.459 35.3236 12.1831 34.4842C11.2566 31.6854 10.7309 28.8277 10.9313 25.8661C10.9501 25.5761 10.778 25.5431 10.5941 25.4818C8.99571 24.9348 7.4633 24.2463 6.06528 23.2866C3.31165 21.3956 1.60714 18.7665 0.652336 15.6117C-0.337836 12.3437 -0.17988 9.10156 1.02954 5.92784C1.9207 3.57231 3.64643 1.8817 5.61263 0.391513C6.11007 0.0142511 6.53679 -0.0777066 7.14975 0.0614089C12.0676 1.18612 15.1065 4.24666 16.4927 9.03318C16.6507 9.58021 16.7803 10.1343 16.8982 10.6908C17.0137 11.2331 17.0963 11.7825 17.2 12.3767H17.2024ZM17.0161 23.1805C17.8059 23.2347 18.5957 23.2866 19.3831 23.3409C21.6723 23.4988 23.9308 23.2937 26.1493 22.7089C29.3414 21.8672 31.5151 19.9431 32.4321 16.7128C32.8754 15.1519 33.0074 13.5509 32.9767 11.9334C32.972 11.6151 32.9437 11.2968 32.9249 10.9431C28.8086 10.4573 24.9776 11.1058 21.5261 13.4589C18.7843 15.3287 15.8444 19.2876 15.6393 21.3649C15.7265 21.3555 15.8114 21.3484 15.8963 21.3343C17.7022 21.0419 19.409 20.4124 21.1159 19.7875C21.2903 19.7238 21.4601 19.6413 21.6393 19.6036C21.7312 19.5847 21.9104 19.6177 21.9292 19.672C21.9622 19.7663 21.9387 19.9196 21.8774 19.9997C21.7666 20.1436 21.611 20.2567 21.4695 20.3746C20.1257 21.5064 18.6357 22.3977 17.0161 23.1805ZM12.2986 19.9455C12.6782 19.0966 12.9658 18.3421 13.343 17.6348C13.7745 16.8236 14.0032 16.0267 13.9089 15.0717C13.7132 13.0958 13.5081 11.1317 12.8456 9.24539C11.9073 6.56918 10.1816 4.67344 7.41851 3.83167C7.26998 3.78687 7.02244 3.80102 6.92342 3.89534C6.33404 4.45887 5.70693 5.00119 5.22127 5.64961C3.57099 7.85423 3.33995 10.422 3.68651 13.0204C3.9812 15.2179 4.86292 17.2316 6.39298 18.9033C7.5411 20.1601 8.95092 21.0183 10.5988 21.6998C10.4904 21.5158 10.4267 21.4168 10.3702 21.3154C9.81614 20.3086 9.22439 19.3183 8.72224 18.2855C8.13521 17.0783 7.77922 15.7885 7.55525 14.4634C7.53639 14.3526 7.64719 14.2182 7.6967 14.0932C7.80751 14.1498 7.92774 14.1946 8.02912 14.2653C8.0857 14.3054 8.11163 14.3879 8.15407 14.4469C8.96271 15.6188 9.74541 16.8095 10.5894 17.9531C11.0916 18.6345 11.6928 19.2452 12.2963 19.9408L12.2986 19.9455Z" fill="#06E89F"/>
</g>
<defs>
<clipPath id="clip0_1694_640">
<rect width="154" height="37" fill="white"/>
</clipPath>
</defs>
</svg>
