<svg width="126" height="31" viewBox="0 0 126 31" fill="none" xmlns="http://www.w3.org/2000/svg">
<g clip-path="url(#clip0_1674_304)">
<path d="M48.9713 21.7024H38.7057C38.885 22.6901 39.3557 23.4724 40.1138 24.0493C40.8718 24.6261 41.817 24.9146 42.9435 24.9146C44.3805 24.9146 45.5648 24.4286 46.4965 23.4586L48.138 25.3907C47.5497 26.1098 46.8071 26.653 45.9082 27.0225C45.0093 27.3899 43.9966 27.5736 42.8702 27.5736C41.4331 27.5736 40.1658 27.2813 39.0721 26.6945C37.9785 26.1098 37.1317 25.2939 36.5356 24.2488C35.9396 23.2038 35.6406 22.0204 35.6406 20.6988C35.6406 19.3772 35.93 18.2195 36.5106 17.1725C37.0892 16.1274 37.8955 15.3115 38.9236 14.7268C39.9517 14.142 41.1129 13.8477 42.4034 13.8477C43.6938 13.8477 44.8164 14.1361 45.8214 14.7129C46.8264 15.2898 47.6095 16.1017 48.1727 17.1468C48.736 18.1918 49.0176 19.4009 49.0176 20.7719C49.0176 20.9892 49.0002 21.2994 48.9694 21.7004L48.9713 21.7024ZM39.9189 17.2475C39.24 17.8422 38.8291 18.6324 38.6825 19.6182H46.1069C45.9757 18.6482 45.5764 17.8619 44.9071 17.2594C44.2378 16.6569 43.4045 16.3566 42.4072 16.3566C41.41 16.3566 40.5979 16.6529 39.9209 17.2475H39.9189Z" fill="white"/>
<path d="M64.2575 18.4146H67.2705V25.4159C66.3889 26.135 65.3589 26.6882 64.1842 27.0714C63.0076 27.4566 61.8001 27.6483 60.5579 27.6483C58.8103 27.6483 57.2344 27.2591 55.8301 26.4807C54.4259 25.7024 53.3225 24.6277 52.522 23.2567C51.7215 21.8856 51.3223 20.3368 51.3223 18.6142C51.3223 16.8915 51.7215 15.3447 52.522 13.9717C53.3225 12.6007 54.4297 11.526 55.8417 10.7476C57.2536 9.96926 58.8431 9.58008 60.608 9.58008C62.045 9.58008 63.3528 9.82307 64.5276 10.3071C65.7042 10.7931 66.6918 11.5042 67.4923 12.4406L65.4824 14.4478C64.1746 13.1103 62.5986 12.4406 60.7546 12.4406C59.5452 12.4406 58.4727 12.6994 57.5333 13.219C56.594 13.7386 55.8591 14.4656 55.3286 15.402C54.7982 16.3384 54.532 17.4091 54.532 18.6142C54.532 19.8192 54.7982 20.8386 55.3286 21.775C55.8591 22.7114 56.594 23.4483 57.5333 23.9837C58.4727 24.519 59.5375 24.7857 60.7315 24.7857C62.0701 24.7857 63.2468 24.4854 64.2594 23.8829V18.4127L64.2575 18.4146Z" fill="white"/>
<path d="M79.0338 13.8477V16.8347C78.7715 16.7853 78.5362 16.7596 78.324 16.7596C77.1319 16.7596 76.2003 17.1152 75.531 17.8264C74.8616 18.5376 74.526 19.5629 74.526 20.9003V27.3998H71.4629V13.9998H74.3794V15.9575C75.2609 14.5529 76.8137 13.8496 79.0338 13.8496V13.8477Z" fill="white"/>
<path d="M94.2975 21.7024H84.0318C84.2112 22.6901 84.6819 23.4724 85.4399 24.0493C86.198 24.6261 87.1432 24.9146 88.2696 24.9146C89.7067 24.9146 90.891 24.4286 91.8227 23.4586L93.4642 25.3907C92.8759 26.1098 92.1332 26.653 91.2344 27.0225C90.3355 27.3899 89.3228 27.5736 88.1963 27.5736C86.7593 27.5736 85.492 27.2813 84.3983 26.6945C83.3046 26.1098 82.4578 25.2939 81.8618 24.2488C81.2658 23.2038 80.9668 22.0204 80.9668 20.6988C80.9668 19.3772 81.2561 18.2195 81.8367 17.1725C82.4154 16.1274 83.2217 15.3115 84.2498 14.7268C85.2779 14.142 86.4391 13.8477 87.7295 13.8477C89.02 13.8477 90.1426 14.1361 91.1476 14.7129C92.1525 15.2898 92.9357 16.1017 93.4989 17.1468C94.0621 18.1918 94.3438 19.4009 94.3438 20.7719C94.3438 20.9892 94.3264 21.2994 94.2955 21.7004L94.2975 21.7024ZM85.2451 17.2475C84.5661 17.8422 84.1553 18.6324 84.0087 19.6182H91.433C91.3019 18.6482 90.9026 17.8619 90.2333 17.2594C89.5639 16.6569 88.7306 16.3566 87.7334 16.3566C86.7362 16.3566 85.9241 16.6529 85.247 17.2475H85.2451Z" fill="white"/>
<path d="M109.831 21.7024H99.565C99.7444 22.6901 100.215 23.4724 100.973 24.0493C101.731 24.6261 102.676 24.9146 103.803 24.9146C105.24 24.9146 106.424 24.4286 107.356 23.4586L108.997 25.3907C108.409 26.1098 107.666 26.653 106.768 27.0225C105.869 27.3899 104.856 27.5736 103.73 27.5736C102.293 27.5736 101.025 27.2813 99.9315 26.6945C98.8378 26.1098 97.991 25.2939 97.395 24.2488C96.799 23.2038 96.5 22.0204 96.5 20.6988C96.5 19.3772 96.7893 18.2195 97.3699 17.1725C97.9486 16.1274 98.7549 15.3115 99.783 14.7268C100.811 14.142 101.972 13.8477 103.263 13.8477C104.553 13.8477 105.676 14.1361 106.681 14.7129C107.686 15.2898 108.469 16.1017 109.032 17.1468C109.595 18.1918 109.877 19.4009 109.877 20.7719C109.877 20.9892 109.86 21.2994 109.829 21.7004L109.831 21.7024ZM100.778 17.2475C100.099 17.8422 99.6885 18.6324 99.5419 19.6182H106.966C106.835 18.6482 106.436 17.8619 105.766 17.2594C105.097 16.6569 104.264 16.3566 103.267 16.3566C102.269 16.3566 101.457 16.6529 100.78 17.2475H100.778Z" fill="white"/>
<path d="M124.505 15.3293C125.501 16.317 126 17.7809 126 19.7209V27.3998H122.937V20.1219C122.937 18.9504 122.667 18.0693 122.129 17.4747C121.591 16.882 120.821 16.5837 119.826 16.5837C118.699 16.5837 117.808 16.9314 117.154 17.6248C116.5 18.3183 116.174 19.3179 116.174 20.6237V27.3998H113.111V13.9997H116.028V15.7303C116.533 15.112 117.172 14.6438 117.939 14.3257C118.707 14.0077 119.573 13.8496 120.536 13.8496C122.185 13.8496 123.508 14.3435 124.505 15.3293Z" fill="white"/>
<path d="M14.0754 10.3696C14.5325 9.98441 14.9492 9.60708 15.3928 9.26532C17.802 7.40437 20.5218 6.38697 23.5231 6.1262C25.5215 5.95236 27.4851 6.17757 29.4256 6.66157C29.5143 6.6833 29.6358 6.80381 29.6474 6.88876C29.9483 9.44707 30.0486 12.0054 29.4005 14.5262C28.3956 18.4298 25.9169 20.8459 22.144 21.8929C19.8524 22.529 17.5146 22.6792 15.1536 22.4875C14.0541 22.3986 12.9566 22.2821 11.8166 22.1734C11.6874 24.9076 12.4879 27.452 13.4234 30.0024C12.5033 30.3383 11.6141 30.6623 10.6843 31.0021C10.4432 30.2928 10.1944 29.5955 9.96872 28.8922C9.21066 26.5472 8.78051 24.1529 8.94447 21.6716C8.9599 21.4286 8.81909 21.401 8.66864 21.3496C7.36084 20.8913 6.10705 20.3145 4.96321 19.5104C2.71025 17.926 1.31565 15.7233 0.534439 13.0801C-0.275701 10.342 -0.146464 7.62563 0.843064 4.96657C1.57219 2.99301 2.98415 1.57656 4.59286 0.328025C4.99986 0.0119401 5.34899 -0.0651055 5.8505 0.0514507C9.8742 0.993778 12.3606 3.55801 13.4948 7.56834C13.624 8.02666 13.7301 8.49091 13.8265 8.95713C13.921 9.41151 13.9886 9.87181 14.0734 10.3696H14.0754ZM13.923 19.4215C14.5692 19.4669 15.2153 19.5104 15.8596 19.5558C17.7326 19.6882 19.5805 19.5163 21.3956 19.0264C24.0073 18.3211 25.7858 16.7091 26.5361 14.0026C26.8987 12.6948 27.0067 11.3535 26.9817 9.99824C26.9778 9.73154 26.9547 9.46485 26.9392 9.16852C23.5714 8.76156 20.4369 9.30483 17.613 11.2764C15.3697 12.843 12.9643 16.1599 12.7965 17.9004C12.8679 17.8925 12.9373 17.8865 13.0067 17.8747C14.4843 17.6297 15.8808 17.1022 17.2773 16.5787C17.4201 16.5254 17.559 16.4562 17.7056 16.4246C17.7808 16.4088 17.9274 16.4365 17.9428 16.4819C17.9698 16.5609 17.9505 16.6894 17.9004 16.7565C17.8097 16.877 17.6824 16.9719 17.5667 17.0706C16.4672 18.0189 15.2481 18.7656 13.923 19.4215ZM10.0632 16.7111C10.3738 15.9999 10.6091 15.3677 10.9177 14.7751C11.2707 14.0955 11.4578 13.4278 11.3807 12.6277C11.2206 10.9722 11.0528 9.32656 10.5107 7.74614C9.74304 5.50391 8.33108 3.91559 6.0704 3.21032C5.94888 3.17279 5.74634 3.18464 5.66533 3.26366C5.1831 3.73581 4.67001 4.19018 4.27266 4.73345C2.92243 6.58057 2.73339 8.73193 3.01694 10.909C3.25805 12.7502 3.97947 14.4373 5.23133 15.8379C6.1707 16.8909 7.32419 17.61 8.67249 18.1809C8.58376 18.0268 8.53168 17.9438 8.48539 17.8589C8.0321 17.0153 7.54794 16.1856 7.13708 15.3203C6.65679 14.3088 6.36552 13.2282 6.18228 12.118C6.16684 12.0251 6.2575 11.9125 6.29801 11.8078C6.38867 11.8552 6.48704 11.8928 6.56999 11.952C6.61628 11.9856 6.6375 12.0548 6.67222 12.1042C7.33383 13.086 7.97423 14.0836 8.66478 15.0418C9.07563 15.6127 9.56751 16.1244 10.0613 16.7071L10.0632 16.7111Z" fill="white"/>
</g>
<defs>
<clipPath id="clip0_1674_304">
<rect width="126" height="31" fill="white"/>
</clipPath>
</defs>
</svg>
